<?xml version="1.0" encoding="UTF-8"?>
<!DOCTYPE svg PUBLIC "-//W3C//DTD SVG 1.1//EN" "http://www.w3.org/Graphics/SVG/1.1/DTD/svg11.dtd">
<svg xmlns="http://www.w3.org/2000/svg" version="1.1" width="1080px" height="1080px" style="shape-rendering:geometricPrecision; text-rendering:geometricPrecision; image-rendering:optimizeQuality; fill-rule:evenodd; clip-rule:evenodd" xmlns:xlink="http://www.w3.org/1999/xlink">
<g><path style="opacity:1" fill="#fefffe" d="M -0.5,-0.5 C 359.5,-0.5 719.5,-0.5 1079.5,-0.5C 1079.5,359.5 1079.5,719.5 1079.5,1079.5C 719.5,1079.5 359.5,1079.5 -0.5,1079.5C -0.5,719.5 -0.5,359.5 -0.5,-0.5 Z"/></g>
<g><path style="opacity:1" fill="#000000" d="M 425.5,278.5 C 497.852,274.97 554.685,302.637 596,361.5C 600.78,369.998 605.28,378.664 609.5,387.5C 550.894,336.059 484.56,324.225 410.5,352C 346.005,382.874 309.838,434.041 302,505.5C 300.686,523.696 302.02,541.696 306,559.5C 308.838,569.669 311.838,579.669 315,589.5C 269.529,542.319 252.862,486.319 265,421.5C 287.448,338.876 340.948,291.21 425.5,278.5 Z"/></g>
<g><path style="opacity:1" fill="#000000" d="M 457.5,375.5 C 459.527,375.338 461.527,375.505 463.5,376C 429.583,391.25 404.083,415.417 387,448.5C 376.204,475.068 375.87,501.735 386,528.5C 396.318,549.151 412.485,562.984 434.5,570C 455.207,575.647 476.207,576.98 497.5,574C 514.759,571.102 531.759,567.102 548.5,562C 584.971,549.732 621.638,538.065 658.5,527C 713.932,512.455 766.932,518.455 817.5,545C 833.73,554.903 847.73,567.236 859.5,582C 828.154,560.275 793.154,548.775 754.5,547.5C 717.176,549.219 681.176,557.052 646.5,571C 601.265,590.287 556.599,610.621 512.5,632C 484.14,644.606 454.473,650.272 423.5,649C 377.046,644.03 345.212,619.863 328,576.5C 317.583,548.445 316.916,520.112 326,491.5C 347.555,427.438 391.388,388.771 457.5,375.5 Z"/></g>
<g><path style="opacity:1" fill="#000000" d="M 742.5,574.5 C 797.106,570.978 843.44,588.811 881.5,628C 867.887,620.863 853.887,614.197 839.5,608C 799.349,594.623 758.682,592.956 717.5,603C 688.497,610.223 660.497,620.223 633.5,633C 584.83,657.998 536.83,683.998 489.5,711C 463.443,724.908 435.777,734.241 406.5,739C 389.11,741.216 371.777,740.883 354.5,738C 394.041,735.93 430.708,724.597 464.5,704C 507.032,676.901 550.032,650.567 593.5,625C 630.169,603.836 669.169,588.502 710.5,579C 721.268,577.156 731.935,575.656 742.5,574.5 Z"/></g>
<g><path style="opacity:1" fill="#000000" d="M 754.5,620.5 C 790.064,617.296 821.064,627.463 847.5,651C 834.186,644.784 820.186,640.117 805.5,637C 772.953,632.268 741.62,636.602 711.5,650C 686.574,661.46 662.574,674.46 639.5,689C 611.617,708.548 582.95,726.881 553.5,744C 531.03,754.869 507.364,759.535 482.5,758C 504.992,754.836 525.992,747.503 545.5,736C 574.52,715.823 603.187,695.157 631.5,674C 657.658,655.085 685.991,640.085 716.5,629C 729.032,624.93 741.698,622.097 754.5,620.5 Z"/></g>
</svg>
