<?xml version="1.0" encoding="UTF-8"?>
<!DOCTYPE svg PUBLIC "-//W3C//DTD SVG 1.1//EN" "http://www.w3.org/Graphics/SVG/1.1/DTD/svg11.dtd">
<svg xmlns="http://www.w3.org/2000/svg" version="1.1" width="480px" height="480px" style="shape-rendering:geometricPrecision; text-rendering:geometricPrecision; image-rendering:optimizeQuality; fill-rule:evenodd; clip-rule:evenodd" xmlns:xlink="http://www.w3.org/1999/xlink">
<g><path style="opacity:1" fill="#000000" d="M -0.5,-0.5 C 159.5,-0.5 319.5,-0.5 479.5,-0.5C 479.5,159.5 479.5,319.5 479.5,479.5C 319.5,479.5 159.5,479.5 -0.5,479.5C -0.5,319.5 -0.5,159.5 -0.5,-0.5 Z"/></g>
<g><path style="opacity:1" fill="#2dfcfb" d="M 223.5,9.5 C 300.892,6.44409 365.058,33.7774 416,91.5C 466.44,155.289 481.107,226.622 460,305.5C 431.236,390.804 373.069,443.971 285.5,465C 196.94,479.706 122.774,453.872 63,387.5C 12.5599,323.711 -2.10674,252.378 19,173.5C 47.764,88.1959 105.931,35.0292 193.5,14C 203.611,12.247 213.611,10.747 223.5,9.5 Z"/></g>
<g><path style="opacity:1" fill="#fefefe" d="M 278.5,137.5 C 301.066,140.855 321.732,149.022 340.5,162C 348.099,173.03 354.266,184.864 359,197.5C 372.029,232.344 379.029,268.344 380,305.5C 357.599,329.082 330.099,341.249 297.5,342C 293.426,338.115 290.426,333.615 288.5,328.5C 308.845,321.576 326.345,310.243 341,294.5C 341.667,293.833 341.667,293.167 341,292.5C 310.77,314.185 276.936,324.518 239.5,323.5C 202.245,324.443 168.578,314.109 138.5,292.5C 143.715,299.876 150.382,306.376 158.5,312C 168.669,319.32 179.669,325.153 191.5,329.5C 188.868,333.931 185.868,338.098 182.5,342C 153.198,341.234 127.531,331.234 105.5,312C 102.6,309.603 100.267,306.77 98.5,303.5C 100.979,264.918 109.146,227.585 123,191.5C 126.973,182.221 131.473,173.221 136.5,164.5C 155.577,149.418 177.244,140.918 201.5,139C 202.861,140.584 203.528,142.418 203.5,144.5C 180.226,148.784 160.893,159.117 145.5,175.5C 208.485,142.168 271.485,142.168 334.5,175.5C 327.133,167.376 318.133,160.543 307.5,155C 297.088,150.198 286.421,146.198 275.5,143C 277.16,141.512 278.16,139.679 278.5,137.5 Z"/></g>
<g><path style="opacity:1" fill="#2dfcfb" d="M 192.5,227.5 C 206.914,226.287 216.081,232.62 220,246.5C 222.844,264.516 215.511,275.516 198,279.5C 180.494,275.529 173.161,264.529 176,246.5C 177.598,241.468 180.098,236.968 183.5,233C 186.564,231.141 189.564,229.308 192.5,227.5 Z"/></g>
<g><path style="opacity:1" fill="#2dfcfb" d="M 276.5,227.5 C 293.562,227.391 302.895,235.891 304.5,253C 303.124,272.063 293.124,280.396 274.5,278C 261.155,270.661 256.322,259.495 260,244.5C 263.045,236.29 268.545,230.623 276.5,227.5 Z"/></g>
</svg>
